<svg width="35" height="35" viewBox="0 0 35 35" fill="none" xmlns="http://www.w3.org/2000/svg">
<path d="M11 16.9091V22.3212C11 22.4667 11.0334 22.5939 11.1003 22.703C11.1671 22.8121 11.259 22.897 11.376 22.9576C11.493 23.0182 11.6246 23.0485 11.7708 23.0485C11.917 23.0444 12.0486 23.0131 12.1656 22.9545C12.2826 22.8959 12.3745 22.8121 12.4414 22.703C12.5082 22.5939 12.5416 22.4667 12.5416 22.3212V15.7697H12.2346C11.9797 15.7697 11.7604 15.8141 11.5765 15.903C11.3927 15.9919 11.2507 16.1222 11.1504 16.2939C11.0501 16.4656 11 16.6707 11 16.9091ZM13.1182 23.9939H23.0322C23.6882 23.9939 24.1801 23.8374 24.5081 23.5242C24.836 23.2111 25 22.7434 25 22.1212V12.8788C25 12.2525 24.836 11.7828 24.5081 11.4697C24.1801 11.1566 23.6882 11 23.0322 11H15.7314C15.0755 11 14.5836 11.1566 14.2556 11.4697C13.9276 11.7828 13.7637 12.2525 13.7637 12.8788V22.7212C13.7637 23.0484 13.7177 23.3101 13.6258 23.5061C13.5339 23.702 13.3647 23.8646 13.1182 23.9939ZM16.2766 14.6121C16.1638 14.6121 16.0698 14.5747 15.9946 14.5C15.9194 14.4252 15.8818 14.3353 15.8818 14.2303C15.8818 14.1293 15.9194 14.0434 15.9946 13.9727C16.0698 13.902 16.1638 13.8667 16.2766 13.8667H22.4995C22.6082 13.8667 22.7001 13.902 22.7753 13.9727C22.8505 14.0434 22.8881 14.1293 22.8881 14.2303C22.8881 14.3353 22.8505 14.4252 22.7753 14.5C22.7001 14.5747 22.6082 14.6121 22.4995 14.6121H16.2766ZM16.2766 16.7454C16.1638 16.7454 16.0698 16.7101 15.9946 16.6394C15.9194 16.5687 15.8818 16.4808 15.8818 16.3758C15.8818 16.2707 15.9194 16.1818 15.9946 16.1091C16.0698 16.0364 16.1638 16 16.2766 16H22.4995C22.6082 16 22.7001 16.0364 22.7753 16.1091C22.8505 16.1818 22.8881 16.2707 22.8881 16.3758C22.8881 16.4808 22.8505 16.5687 22.7753 16.6394C22.7001 16.7101 22.6082 16.7454 22.4995 16.7454H16.2766ZM20.162 18.8849C20.0492 18.8849 19.9563 18.8495 19.8832 18.7788C19.8101 18.7081 19.7735 18.6222 19.7735 18.5212C19.7735 18.4121 19.8101 18.3212 19.8832 18.2485C19.9563 18.1757 20.0492 18.1394 20.162 18.1394H22.4995C22.6082 18.1394 22.699 18.1757 22.7721 18.2485C22.8453 18.3212 22.8818 18.4121 22.8818 18.5212C22.8818 18.6222 22.8453 18.7081 22.7721 18.7788C22.699 18.8495 22.6082 18.8849 22.4995 18.8849H20.162ZM20.162 21.0666C20.0492 21.0666 19.9563 21.0313 19.8832 20.9606C19.8101 20.8899 19.7735 20.804 19.7735 20.703C19.7735 20.5939 19.8101 20.503 19.8832 20.4303C19.9563 20.3575 20.0492 20.3212 20.162 20.3212H22.4995C22.6082 20.3212 22.699 20.3575 22.7721 20.4303C22.8453 20.503 22.8818 20.5939 22.8818 20.703C22.8818 20.804 22.8453 20.8899 22.7721 20.9606C22.699 21.0313 22.6082 21.0666 22.4995 21.0666H20.162ZM16.615 21.0969C16.3811 21.0969 16.1993 21.0343 16.0698 20.9091C15.9403 20.7838 15.8756 20.6101 15.8756 20.3879V18.8545C15.8756 18.6323 15.9403 18.4575 16.0698 18.3303C16.1993 18.203 16.3811 18.1394 16.615 18.1394H18.1817C18.4115 18.1394 18.5912 18.203 18.7207 18.3303C18.8502 18.4575 18.915 18.6323 18.915 18.8545V20.3879C18.915 20.6101 18.8502 20.7838 18.7207 20.9091C18.5912 21.0343 18.4115 21.0969 18.1817 21.0969H16.615Z" fill="white"/>
</svg>
